<svg width="80" height="79" viewBox="0 0 80 79" fill="none" xmlns="http://www.w3.org/2000/svg">
<path d="M16.5473 2.17588C17.8745 3.53079 18.7342 4.93671 19.3296 6.73591C19.2183 8.06247 19.2183 8.06247 18.8844 8.94684C18.1499 9.09276 17.4154 9.23868 16.6586 9.38902C16.5289 9.12226 16.3992 8.8555 16.2655 8.58065C15.0991 6.32172 14.1802 4.72404 11.7616 3.64061C9.53259 3.32432 8.33657 3.39467 6.47513 4.66317C5.21849 5.62979 4.299 6.53683 4.03231 8.15941C3.93217 12.7111 5.15173 16.9089 6.30819 21.2727C6.50816 22.0482 6.70756 22.8237 6.9064 23.5994C7.89588 27.4371 8.94797 31.2509 10.0581 35.0558C10.6202 37.0515 11.0503 39.0653 11.4651 41.0951C11.9566 43.4005 12.5776 45.6616 13.2241 47.9282C14.1012 51.0104 14.8944 54.1057 15.643 57.221C15.8488 58.0697 16.0545 58.9184 16.2603 59.767C16.5744 61.0644 16.8862 62.3622 17.1918 63.6616C17.4941 64.9434 17.8059 66.2227 18.1193 67.5018C18.2079 67.8887 18.2966 68.2757 18.3879 68.6743C19.0726 71.4197 20.0329 73.2812 22.3902 74.9982C24.3728 75.5774 25.9828 75.454 27.8993 74.7219C30.0063 73.3901 30.6439 71.8968 31.3321 69.5571C31.4896 69.0289 31.647 68.5007 31.8093 67.9565C31.891 67.6758 31.9728 67.3951 32.057 67.1059C32.314 66.224 32.5753 65.3436 32.8379 64.4634C33.3939 62.5963 33.9438 60.7275 34.4935 58.8585C35.1322 56.6894 35.7734 54.521 36.419 52.3539C36.6764 51.486 36.9302 50.6171 37.1839 49.7481C37.418 48.96 37.418 48.96 37.6568 48.156C37.7931 47.692 37.9295 47.228 38.0699 46.7499C38.4722 45.6482 38.4722 45.6482 39.3626 44.7638C40.2251 44.7362 40.2251 44.7362 41.1433 45.206C42.5134 47.9231 43.2687 50.836 44.1048 53.7492C44.4167 54.8173 44.7289 55.8853 45.0412 56.9533C45.5288 58.6285 46.0149 60.3041 46.4975 61.9808C46.9659 63.6049 47.4408 65.227 47.9166 66.8489C48.059 67.3501 48.2014 67.8513 48.3482 68.3676C49.1431 71.0598 49.8173 73.2243 52.1614 74.9706C54.4505 75.6653 56.1246 75.5894 58.1991 74.5008C59.9838 73.0167 60.8323 71.7828 61.3857 69.5379C61.5507 68.8818 61.5507 68.8818 61.7191 68.2125C61.8902 67.505 61.8902 67.505 62.0649 66.7833C62.1872 66.2922 62.3096 65.8011 62.4356 65.2951C62.8267 63.7217 63.2119 62.1469 63.5969 60.572C63.8542 59.532 64.1118 58.4922 64.3699 57.4525C64.8664 55.4496 65.3611 53.4462 65.8539 51.4424C66.4103 49.1806 66.9694 46.9196 67.5357 44.6602C67.6643 44.1462 67.7928 43.6322 67.9253 43.1026C68.456 41.0663 69.0503 39.0497 69.6403 37.0297C70.0835 35.4649 70.4874 33.8952 70.8797 32.317C71.482 29.9037 72.0924 27.4927 72.7129 25.0839C73.1096 23.5425 73.5033 22.0003 73.8968 20.4581C74.0995 19.6665 74.3033 18.8751 74.5081 18.084C74.8087 16.9217 75.1053 15.7585 75.4011 14.5951C75.4928 14.2441 75.5846 13.8931 75.6792 13.5314C76.594 9.91531 76.594 9.91531 75.5889 6.43191C74.6008 4.88091 73.6441 4.21979 71.8605 3.64061C69.8796 3.3258 68.6285 3.47391 66.8244 4.3868C64.4196 6.44219 63.8713 8.86004 63.1535 11.8124C63.0509 12.2222 62.9483 12.6321 62.8426 13.0544C62.5156 14.3651 62.1938 15.6771 61.8718 16.9891C61.6574 17.8491 61.4426 18.709 61.2276 19.5688C60.1581 23.8634 59.1264 28.1639 58.1855 32.4883C56.8489 38.609 56.8489 38.609 55.389 40.7842C54.6544 40.6382 53.9199 40.4923 53.1631 40.342C53.0337 39.9006 53.0337 39.9006 52.9016 39.4504C52.0863 36.6715 51.2679 33.8936 50.4462 31.1166C50.0238 29.6891 49.6027 28.2612 49.1842 26.8326C48.702 25.1886 48.2158 23.5458 47.7288 21.9032C47.5799 21.3923 47.431 20.8814 47.2775 20.3551C47.135 19.8772 46.9925 19.3993 46.8457 18.9069C46.6604 18.278 46.6604 18.278 46.4713 17.6364C45.8039 15.821 45.1503 14.5586 43.5361 13.4516C41.1865 12.6304 39.0707 12.4983 36.7472 13.4516C34.7442 15.1485 34.1095 17.3719 33.4309 19.8201C33.2379 20.4937 33.0447 21.1673 32.8512 21.8408C32.7017 22.3667 32.7017 22.3667 32.5491 22.9032C32.0321 24.7048 31.4908 26.4991 30.9512 28.2942C30.7352 29.0153 30.5193 29.7364 30.3034 30.4576C30.0863 31.1822 29.8692 31.9068 29.6522 32.6314C29.4264 33.3853 29.2006 34.1393 28.9748 34.8933C28.4309 36.7095 27.8869 38.5258 27.3428 40.342C26.2855 40.6183 26.2855 40.6183 25.1169 40.7842C24.6762 40.3464 24.6762 40.3464 24.2266 39.8998C24.3992 37.6767 24.9663 35.5888 25.6108 33.4622C25.7037 33.1497 25.7966 32.8371 25.8923 32.5151C26.1883 31.5215 26.4873 30.5288 26.7863 29.5361C26.9801 28.8858 27.1737 28.2355 27.3671 27.5851C27.8489 25.9688 28.3369 24.3545 28.8284 22.7411C29.0276 22.0857 29.2257 21.4299 29.4228 20.7738C29.7131 19.8079 30.0074 18.8431 30.3025 17.8786C30.3889 17.5888 30.4753 17.299 30.5643 17.0004C31.5163 13.923 32.9071 12.0605 35.3838 10.0523C37.973 8.77213 41.2585 8.95933 43.9952 9.66539C46.8028 10.8667 48.5367 13.2056 49.6831 15.9609C50.1674 17.3911 50.6034 18.8269 51.0207 20.2778C51.1724 20.7859 51.3242 21.294 51.4806 21.8175C52.5074 25.3075 53.4235 28.7982 54.0534 32.3827C54.3472 32.3827 54.6411 32.3827 54.9438 32.3827C54.9955 31.8903 55.0473 31.398 55.1006 30.8908C55.3793 28.6877 55.8966 26.5658 56.441 24.4147C56.5968 23.7917 56.5968 23.7917 56.7557 23.1562C56.9751 22.2815 57.1955 21.4071 57.4169 20.5329C57.7516 19.2094 58.0812 17.8847 58.4104 16.5598C61.613 3.7803 61.613 3.7803 66.9636 0.545317C69.6214 -0.334677 71.6372 -0.129424 74.142 1.01514C76.637 2.36097 78.1592 4.03263 79.5955 6.43191C80.1852 8.95087 80.1633 11.2107 79.3096 13.6618C78.2399 16.7921 77.5049 20.0139 76.7175 23.2229C76.5441 23.924 76.3706 24.625 76.197 25.3261C75.7418 27.1658 75.2885 29.0059 74.8356 30.8462C74.3798 32.6976 73.9222 34.5485 73.4647 36.3995C72.9473 38.4929 72.43 40.5864 71.9142 42.6803C70.2696 49.355 68.5975 56.0185 66.775 62.6479C65.9119 65.7949 65.9119 65.7949 65.1255 68.9614C64.2822 72.5107 63.3835 75.3617 60.385 77.6462C57.9713 79.0729 55.4589 79.1976 52.7179 78.8121C49.9348 78.008 48.0946 76.2921 46.4854 73.9481C45.839 72.5394 45.4079 71.0966 44.9829 69.6091C44.8578 69.1958 44.7327 68.7825 44.6037 68.3566C44.333 67.4618 44.0654 66.566 43.8007 65.6694C43.1799 63.5841 42.5299 61.5079 41.8821 59.4308C41.1858 57.1964 40.4966 54.9598 39.8078 52.7232C39.7297 52.9914 39.6516 53.2596 39.5712 53.536C38.7652 56.3011 37.9519 59.064 37.1352 61.826C36.7075 63.2811 36.2878 64.7383 35.869 66.196C35.6055 67.0943 35.3418 67.9925 35.0778 68.8906C34.9601 69.3078 34.8424 69.7251 34.7212 70.155C33.847 73.091 32.8397 75.4861 30.2991 77.3871C27.0807 78.9385 24.5177 79.3754 21.0547 78.3699C18.3663 77.2346 16.6792 75.0584 15.5783 72.4344C14.7155 70.0939 14.2039 67.6872 13.6675 65.2564C12.6995 60.9837 11.6729 56.7309 10.5791 52.4883C10.4394 51.9461 10.2998 51.4039 10.1559 50.8453C9.72759 49.1864 9.29802 47.5278 8.86796 45.8693C7.08316 38.9864 5.32154 32.1044 3.75033 25.1698C3.17593 22.6431 2.556 20.1367 1.86821 17.638C-0.524038 8.86626 -0.524038 8.86626 1.32777 4.74608C5.9478 0.0394374 10.6444 -1.422 16.5473 2.17588Z" fill="#C43413"/>
</svg>
